<svg width="48" height="71" viewBox="0 0 48 71" fill="none" xmlns="http://www.w3.org/2000/svg">
<path d="M32.3518 70.7551C29.7553 70.7551 27.1057 69.6117 24.7869 67.4307C24.5286 67.189 24.1259 67.189 23.8685 67.4307C20.7149 70.396 16.9485 71.4421 13.5383 70.3047C7.76373 68.3771 3.66727 60.7176 1.36454 47.5372C-0.168366 38.769 0.8969 33.0184 4.61942 29.9567C8.10559 27.0903 13.4969 27.0379 20.6474 29.8029C23.0202 30.7198 25.6352 30.7198 28.0089 29.8029C35.1585 27.0379 40.5515 27.0903 44.0368 29.9567C47.7593 33.0184 48.8237 38.769 47.2917 47.5372C44.9881 60.7176 40.8925 68.3771 35.1171 70.3047C34.2139 70.6064 33.2862 70.7543 32.3518 70.7543V70.7551ZM11.4187 32.0094C9.82927 32.0094 8.38499 32.3516 7.3096 33.2364C4.94018 35.1851 4.3282 39.8768 5.5395 46.8063C8.18072 61.9184 12.5245 65.4938 14.8787 66.2797C17.4634 67.1425 19.8024 65.433 20.9664 64.3378C22.8513 62.5665 25.804 62.5657 27.6881 64.3378C28.853 65.433 31.1945 67.1417 33.7758 66.2797C36.13 65.4938 40.4738 61.9192 43.115 46.8063C44.3263 39.8768 43.7135 35.1851 41.3449 33.2364C38.583 30.964 33.3976 32.2688 29.535 33.762C26.1763 35.0609 22.4774 35.0609 19.1195 33.762C16.7611 32.8502 13.9105 32.0094 11.4187 32.0094Z" fill="#5700FF"/>
<path d="M19.8522 53.9597L15.0408 49.1429C14.3824 48.4829 14.1486 47.4587 14.5833 46.6339C15.2949 45.2861 17 45.1035 17.9808 46.0863L20.4051 48.5133C21.1294 49.2384 22.3035 49.2384 23.0278 48.5133L30.5775 40.9543C31.3963 40.1346 32.7494 40.007 33.6036 40.7904C34.5001 41.6126 34.5228 43.0061 33.6728 43.8571L23.5815 53.9605C22.5517 54.9915 20.8812 54.9915 19.8514 53.9605L19.8522 53.9597Z" fill="#5700FF"/>
<path d="M24.1648 23.8991C30.475 23.8991 35.5904 18.9968 35.5904 12.9496C35.5904 6.90229 30.475 2 24.1648 2C17.8546 2 12.7391 6.90229 12.7391 12.9496C12.7391 18.9968 17.8546 23.8991 24.1648 23.8991Z" stroke="#5700FF" stroke-width="3.5" stroke-miterlimit="10"/>
</svg>
