<svg width="31" height="28" viewBox="0 0 31 28" fill="none" xmlns="http://www.w3.org/2000/svg">
<path d="M28.2517 3.4162H26.7546V2.33645C26.7546 1.39842 25.9915 0.635254 25.0534 0.635254C24.1154 0.635254 23.3522 1.39842 23.3522 2.33645V3.4162H20.5168V2.33645C20.5168 1.39842 19.7537 0.635254 18.8156 0.635254C17.8776 0.635254 17.1144 1.39842 17.1144 2.33645V3.4162H14.2791V2.33645C14.2791 1.39842 13.5159 0.635254 12.5779 0.635254C11.6399 0.635254 10.8767 1.39842 10.8767 2.33645V3.4162H8.04137V2.33645C8.04137 1.39842 7.27821 0.635254 6.34017 0.635254C5.40213 0.635254 4.63897 1.39842 4.63897 2.33645V3.4162H3.14185C1.71945 3.4162 0.562378 4.57333 0.562378 5.99573V24.2596C0.562378 25.9588 1.94469 27.341 3.64382 27.341H5.38694C5.66882 27.341 5.89731 27.1126 5.89731 26.8306C5.89731 26.5487 5.66882 26.3203 5.38694 26.3203H3.64382C2.50756 26.3202 1.58312 25.3958 1.58312 24.2595V11.8488H24.5674C24.8492 11.8488 25.0777 11.6204 25.0777 11.3385C25.0777 11.0565 24.8492 10.8281 24.5674 10.8281H1.58312V5.99561C1.58312 5.13608 2.28232 4.43688 3.14185 4.43688H4.63891V5.61571C4.63891 5.87956 4.69927 6.12957 4.80692 6.35268C5.08206 6.92271 5.66592 7.31697 6.34011 7.31697C7.27815 7.31697 8.04131 6.55381 8.04131 5.61577V4.43694H10.8766V5.61577C10.8766 6.55381 11.6398 7.31703 12.5778 7.31703C13.5159 7.31703 14.279 6.55386 14.279 5.61583V4.43694H17.1144V5.61577C17.1144 6.55381 17.8775 7.31703 18.8156 7.31703C19.7536 7.31703 20.5168 6.55386 20.5168 5.61583V4.43694H23.3522V5.61577C23.3522 6.55381 24.1153 7.31703 25.0534 7.31703C25.9914 7.31703 26.7546 6.55386 26.7546 5.61583V4.43694H28.2516C29.1111 4.43694 29.8104 5.13614 29.8104 5.99567V10.8281H26.6087C26.3268 10.8281 26.0984 11.0566 26.0984 11.3385C26.0984 11.6205 26.3268 11.8489 26.6087 11.8489H29.8104V24.2596C29.8104 25.3958 28.8859 26.3203 27.7497 26.3203H7.42843C7.14655 26.3203 6.91805 26.5487 6.91805 26.8306C6.91805 27.1126 7.14655 27.341 7.42843 27.341H27.7497C29.4487 27.341 30.8311 25.9588 30.8311 24.2596V5.99573C30.8312 4.57333 29.674 3.4162 28.2517 3.4162ZM7.02063 5.61565C7.02063 5.99088 6.71534 6.29611 6.34017 6.29611C6.08217 6.29611 5.85729 6.1518 5.74195 5.93974C5.68957 5.84332 5.65977 5.73294 5.65977 5.61571V2.33645C5.65977 1.96123 5.965 1.656 6.34017 1.656C6.7154 1.656 7.02063 1.96129 7.02063 2.33645V5.61565ZM13.2584 5.61571C13.2584 5.99094 12.9531 6.29617 12.578 6.29617C12.2027 6.29617 11.8975 5.99088 11.8975 5.61571V2.33645C11.8975 1.96123 12.2028 1.656 12.578 1.656C12.9532 1.656 13.2584 1.96129 13.2584 2.33645V5.61571ZM19.4961 5.61571C19.4961 5.99094 19.1908 6.29617 18.8156 6.29617C18.4404 6.29617 18.1352 5.99088 18.1352 5.61571V2.33645C18.1352 1.96123 18.4405 1.656 18.8156 1.656C19.1909 1.656 19.4961 1.96129 19.4961 2.33645V5.61571ZM25.7338 5.61571C25.7338 5.99094 25.4285 6.29617 25.0534 6.29617C24.6781 6.29617 24.3729 5.99088 24.3729 5.61571V2.33645C24.3729 1.96123 24.6782 1.656 25.0534 1.656C25.4286 1.656 25.7338 1.96129 25.7338 2.33645V5.61571Z" fill="#5700FF" stroke="#5700FF" stroke-width="0.25"/>
</svg>
