<svg width="32" height="32" viewBox="0 0 32 32" fill="none" xmlns="http://www.w3.org/2000/svg">
<path d="M26.6461 17.2603C26.1245 17.2603 25.7019 17.683 25.7019 18.2045V27.9064H20.4933V18.2045C20.4933 17.683 20.0706 17.2603 19.5491 17.2603H12.4513C11.9297 17.2603 11.5071 17.683 11.5071 18.2045V27.9064H6.29796V18.2045C6.29796 17.683 5.87533 17.2603 5.35375 17.2603C4.83217 17.2603 4.40955 17.683 4.40955 18.2045V28.8506C4.40955 29.372 4.83217 29.7948 5.35375 29.7948H12.4513H19.5491H26.6461C27.1677 29.7948 27.5903 29.372 27.5903 28.8506V18.2045C27.5903 17.683 27.1675 17.2603 26.6461 17.2603ZM13.3955 27.9064V19.1487H18.6049V27.9064H13.3955Z" fill="white"/>
<path d="M31.7234 17.5368L16.667 2.48159C16.2983 2.11285 15.7005 2.11297 15.3316 2.48159L0.276558 17.5368C-0.0921859 17.9055 -0.0921859 18.5034 0.276558 18.872C0.645427 19.2407 1.24317 19.2407 1.61192 18.872L15.9993 4.48456L30.3881 18.8721C30.5725 19.0564 30.8142 19.1486 31.0558 19.1486C31.2974 19.1486 31.5391 19.0564 31.7235 18.872C32.0921 18.5034 32.0921 17.9055 31.7234 17.5368Z" fill="white"/>
</svg>
