<svg width="32" height="32" viewBox="0 0 32 32" fill="none" xmlns="http://www.w3.org/2000/svg">
<path d="M30.6414 16.7207H30.5638C30.2934 15.5082 29.3359 14.5519 28.1218 14.2819V12.6583C28.1218 5.925 22.6365 0.447021 15.8942 0.447021C9.15192 0.447021 3.66665 5.925 3.66665 12.6583V14.2819C2.45248 14.5519 1.49488 15.5082 1.22458 16.7207H1.14704C0.760486 16.7207 0.447144 17.0337 0.447144 17.4197C0.447144 17.8057 0.760486 18.1187 1.14704 18.1187H1.22458C1.50188 19.3625 2.50238 20.3368 3.76114 20.5771C4.05222 21.8106 5.16281 22.7318 6.48554 22.7318C8.02922 22.7318 9.28511 21.4776 9.28511 19.936V14.9034C9.28511 13.3618 8.02922 12.1077 6.48554 12.1077C5.96874 12.1077 5.48448 12.2488 5.06854 12.4937C5.15707 6.60683 9.97885 1.84495 15.8942 1.84495C21.8058 1.84495 26.6253 6.60082 26.7197 12.4825C26.3081 12.2446 25.831 12.1077 25.3222 12.1077C23.7785 12.1077 22.5226 13.3618 22.5226 14.9034V19.936C22.5226 21.4776 23.7785 22.7318 25.3222 22.7318C26.6462 22.7318 27.7577 21.8088 28.0474 20.5735C28.4834 20.4874 28.8878 20.3132 29.2416 20.0702V23.1573C29.2416 24.4703 28.6023 25.7176 27.4415 26.6691C26.2405 27.6536 24.6428 28.1958 22.9425 28.1958H18.3997C18.254 27.1021 17.7527 26.4484 17.0191 26.4484H14.3945C13.0438 26.4484 11.9449 27.5458 11.9449 28.8948C11.9449 30.2437 13.0438 31.3411 14.3945 31.3411H17.0191C17.7528 31.3411 18.2541 30.6875 18.3997 29.5937H22.9425C27.1877 29.5937 30.6414 26.7063 30.6414 23.1573V18.1187C31.0279 18.1187 31.3413 17.8057 31.3413 17.4197C31.3413 17.0337 31.0279 16.7207 30.6414 16.7207ZM5.08575 14.9034C5.08575 14.1327 5.7137 13.5056 6.48554 13.5056C7.25738 13.5056 7.88533 14.1327 7.88533 14.9034V19.936C7.88533 20.7068 7.25738 21.3339 6.48554 21.3339C5.7137 21.3339 5.08575 20.7068 5.08575 19.936C5.08575 19.55 4.77241 19.237 4.38586 19.237C4.38257 19.237 4.37942 19.2374 4.3762 19.2375C4.37291 19.2375 4.36976 19.237 4.36654 19.237C3.36318 19.237 2.54682 18.4218 2.54682 17.4197C2.54682 16.6578 3.01883 16.0044 3.68597 15.7348V17.5518C3.68597 17.9378 3.99931 18.2508 4.38586 18.2508C4.77241 18.2508 5.08575 17.9378 5.08575 17.5518V14.9034ZM16.8697 29.9432H14.3945C13.8156 29.9432 13.3446 29.4729 13.3446 28.8948C13.3446 28.3167 13.8156 27.8463 14.3945 27.8463H16.8697C16.9431 27.9975 17.0439 28.3545 17.0439 28.8948C17.0439 29.435 16.9431 29.792 16.8697 29.9432ZM27.4219 19.237C27.0353 19.237 26.722 19.55 26.722 19.936C26.722 20.7068 26.094 21.3339 25.3222 21.3339C24.5503 21.3339 23.9224 20.7068 23.9224 19.936V14.9034C23.9224 14.1327 24.5503 13.5056 25.3222 13.5056C26.094 13.5056 26.722 14.1327 26.722 14.9034V17.5518C26.722 17.9378 27.0353 18.2508 27.4219 18.2508C27.8084 18.2508 28.1218 17.9378 28.1218 17.5518V15.7424C28.7787 16.0168 29.2416 16.6652 29.2416 17.4197C29.2416 18.4218 28.4252 19.237 27.4219 19.237Z" fill="#5700FF"/>
</svg>
