<svg width="48" height="63" viewBox="0 0 48 63" fill="none" xmlns="http://www.w3.org/2000/svg">
<path d="M31.787 62.6454C29.1918 62.6454 26.5434 61.5039 24.2257 59.3263C23.9676 59.085 23.5651 59.085 23.3078 59.3263C20.1557 62.2868 16.3911 63.3313 12.9825 62.1957C7.21077 60.2712 3.11627 52.6239 0.814651 39.4646C-0.717515 30.7104 0.347239 24.969 4.06797 21.9122C7.55247 19.0504 12.9412 18.9981 20.0882 21.7587C22.4599 22.6741 25.0737 22.6741 27.4462 21.7587C34.5923 18.9981 39.9827 19.0504 43.4664 21.9122C47.1871 24.969 48.251 30.7104 46.7197 39.4646C44.4173 52.6239 40.3236 60.2712 34.551 62.1957C33.6482 62.4969 32.721 62.6445 31.787 62.6445V62.6454ZM10.864 23.9616C9.27531 23.9616 7.83173 24.3033 6.75686 25.1866C4.38858 27.1322 3.77689 31.8165 4.98761 38.7348C7.62756 53.8228 11.9693 57.3925 14.3223 58.1771C16.9058 59.0386 19.2437 57.3317 20.4071 56.2383C22.2911 54.4699 25.2424 54.4691 27.1255 56.2383C28.2899 57.3317 30.6303 59.0377 33.2103 58.1771C35.5634 57.3925 39.9051 53.8236 42.5451 38.7348C43.7558 31.8165 43.1433 27.1322 40.7758 25.1866C38.0152 22.9179 32.8324 24.2206 28.9716 25.7114C25.6145 27.0082 21.9174 27.0082 18.5611 25.7114C16.2038 24.8011 13.3546 23.9616 10.864 23.9616Z" fill="#5700FF"/>
<path d="M19.2934 45.8768L14.4843 41.0677C13.8262 40.4088 13.5925 39.3862 14.027 38.5628C14.7383 37.2171 16.4426 37.0348 17.4229 38.016L19.8461 40.4392C20.57 41.1631 21.7436 41.1631 22.4675 40.4392L30.0135 32.8922C30.8319 32.0738 32.1844 31.9464 33.0382 32.7286C33.9342 33.5495 33.957 34.9407 33.1074 35.7904L23.0209 45.8777C21.9916 46.907 20.3219 46.907 19.2926 45.8777L19.2934 45.8768Z" fill="#5700FF"/>
<path d="M13.3884 21.5963V12.7863C13.3884 6.82891 18.2367 2 24.218 2C30.1992 2 35.0475 6.82891 35.0475 12.7863V21.5963" stroke="#5700FF" stroke-width="3.4" stroke-miterlimit="10"/>
</svg>
