<svg width="35" height="27" viewBox="0 0 35 27" fill="none" xmlns="http://www.w3.org/2000/svg">
<path d="M29.631 2.11272H12.4161C12.4161 1.05807 11.558 0.199951 10.5033 0.199951H7.95294C6.89829 0.199951 6.04017 1.05807 6.04017 2.11272H5.40258C2.94156 2.11272 0.939453 4.11491 0.939453 6.57585V21.878C0.939453 24.3389 2.94156 26.3411 5.40258 26.3411H29.631C32.092 26.3411 34.0941 24.3389 34.0941 21.878V6.57585C34.0941 4.11491 32.092 2.11272 29.631 2.11272ZM7.95294 1.47513H10.5033C10.8548 1.47513 11.1409 1.76117 11.1409 2.11272H7.31535C7.31535 1.76117 7.60139 1.47513 7.95294 1.47513ZM29.631 25.0659H5.40258C3.64475 25.0659 2.21463 23.6358 2.21463 21.878V9.76379H7.31535C7.66746 9.76379 7.95294 9.47831 7.95294 9.12621C7.95294 8.7741 7.66746 8.48862 7.31535 8.48862H2.21463V6.57585C2.21463 4.81801 3.64475 3.3879 5.40258 3.3879H29.631C31.3888 3.3879 32.8189 4.81801 32.8189 6.57585V8.48862H27.7182C27.3661 8.48862 27.0806 8.7741 27.0806 9.12621C27.0806 9.47831 27.3661 9.76379 27.7182 9.76379H32.8189V21.878C32.8189 23.6358 31.3888 25.0659 29.631 25.0659Z" fill="#5700FF"/>
<path d="M17.5167 4.66309C12.2432 4.66309 7.95288 8.95343 7.95288 14.2269C7.95288 19.5004 12.2432 23.7908 17.5167 23.7908C22.7902 23.7908 27.0806 19.5004 27.0806 14.2269C27.0806 8.95343 22.7902 4.66309 17.5167 4.66309ZM17.5167 22.5156C12.9463 22.5156 9.22806 18.7973 9.22806 14.2269C9.22806 9.65653 12.9463 5.93827 17.5167 5.93827C22.0871 5.93827 25.8054 9.65653 25.8054 14.2269C25.8054 18.7973 22.0871 22.5156 17.5167 22.5156Z" fill="#5700FF"/>
<path d="M17.5168 7.2135C13.6496 7.2135 10.5033 10.3598 10.5033 14.227C10.5033 18.0942 13.6496 21.2405 17.5168 21.2405C21.384 21.2405 24.5303 18.0942 24.5303 14.227C24.5303 10.3598 21.384 7.2135 17.5168 7.2135ZM17.5168 19.9653C14.3527 19.9653 11.7785 17.3911 11.7785 14.227C11.7785 11.0629 14.3527 8.48868 17.5168 8.48868C20.6809 8.48868 23.2551 11.0629 23.2551 14.227C23.2551 17.3911 20.6809 19.9653 17.5168 19.9653Z" fill="#5700FF"/>
<path d="M17.5169 9.76392C17.1648 9.76392 16.8793 10.0494 16.8793 10.4015C16.8793 10.7536 17.1648 11.0391 17.5169 11.0391C19.2747 11.0391 20.7048 12.4692 20.7048 14.227C20.7048 14.5792 20.9903 14.8646 21.3424 14.8646C21.6945 14.8646 21.98 14.5792 21.98 14.227C21.98 11.7661 19.9779 9.76392 17.5169 9.76392Z" fill="#5700FF"/>
<path d="M28.9935 7.85117C30.0481 7.85117 30.9062 6.99314 30.9062 5.9384C30.9062 4.88367 30.0481 4.02563 28.9935 4.02563C27.9388 4.02563 27.0807 4.88367 27.0807 5.9384C27.0807 6.99314 27.9388 7.85117 28.9935 7.85117ZM28.9935 5.30081C29.345 5.30081 29.631 5.58685 29.631 5.9384C29.631 6.28995 29.345 6.57599 28.9935 6.57599C28.6419 6.57599 28.3559 6.28995 28.3559 5.9384C28.3559 5.58685 28.6419 5.30081 28.9935 5.30081Z" fill="#5700FF"/>
</svg>
