<svg width="28" height="28" viewBox="0 0 28 28" fill="none" xmlns="http://www.w3.org/2000/svg">
<g clip-path="url(#clip0_168_1081)">
<path d="M10.6321 19.329L10.6321 19.329C10.6705 19.3511 10.7682 19.3933 10.8798 19.3291L10.6321 19.329ZM10.6321 19.329C10.5937 19.3069 10.5083 19.2434 10.5083 19.1146V8.88551C10.5083 8.75676 10.5938 8.69321 10.6321 8.67106L10.6322 8.67105C10.6551 8.6578 10.7007 8.63681 10.7575 8.63681C10.7936 8.63681 10.8351 8.64528 10.8798 8.67103L19.7384 13.7855C19.8499 13.8499 19.8622 13.9557 19.8622 14C19.8622 14.0444 19.8499 14.1501 19.7383 14.2145L10.8798 19.3291L10.6321 19.329ZM10.145 7.82737L10.145 7.82737C9.76265 8.04816 9.53398 8.44408 9.53398 8.88556V19.1146C9.53398 19.5561 9.76254 19.952 10.145 20.1728C10.336 20.2831 10.5458 20.3384 10.756 20.3384C10.9661 20.3384 11.1759 20.2831 11.367 20.1728L11.342 20.1295L11.367 20.1728L20.2256 15.0583L20.2006 15.015L20.2256 15.0583C20.6079 14.8376 20.8366 14.4416 20.8366 14.0001C20.8366 13.5586 20.6078 13.1626 20.2255 12.9418L20.2005 12.9851L20.2255 12.9418L11.3669 7.82732C10.9845 7.60658 10.5273 7.60664 10.145 7.82737Z" fill="#5700FF" stroke="#5700FF" stroke-width="0.1"/>
<path d="M13.9999 3.31523C8.10828 3.31523 3.31523 8.10834 3.31523 13.9999C3.31523 19.8915 8.10834 24.6846 13.9999 24.6846C19.8915 24.6846 24.6847 19.8916 24.6847 13.9999C24.6847 8.10828 19.8916 3.31523 13.9999 3.31523ZM13.9999 23.7104C8.64564 23.7104 4.28952 19.3543 4.28952 14C4.28952 8.64564 8.64564 4.28958 13.9999 4.28958C19.3542 4.28958 23.7103 8.64564 23.7103 14C23.7103 19.3543 19.3543 23.7104 13.9999 23.7104Z" fill="#5700FF" stroke="#5700FF" stroke-width="0.1"/>
<path d="M23.9348 4.06517C21.2812 1.41149 17.7528 -0.05 13.9999 -0.05C10.247 -0.05 6.71874 1.41149 4.06517 4.06517C1.41149 6.71874 -0.05 10.2472 -0.05 13.9999C-0.05 17.7527 1.41149 21.2813 4.06517 23.9348C6.71874 26.5885 10.2472 28.05 13.9999 28.05C17.7527 28.05 21.2812 26.5885 23.9348 23.9348C26.5885 21.2813 28.05 17.7528 28.05 13.9999C28.05 10.2471 26.5885 6.71874 23.9348 4.06517ZM23.2459 23.2459C20.7762 25.7157 17.4928 27.0757 13.9999 27.0757C10.5072 27.0757 7.22373 25.7156 4.75401 23.2459C2.2843 20.7763 0.924289 17.4928 0.924289 13.9999C0.924289 10.5071 2.28435 7.22378 4.75412 4.75407C7.22389 2.28435 10.5072 0.924289 13.9999 0.924289C17.4927 0.924289 20.7762 2.28429 23.2459 4.75401C25.7156 7.22373 27.0757 10.5072 27.0757 13.9999C27.0757 17.4926 25.7156 20.7762 23.2459 23.2459Z" fill="#5700FF" stroke="#5700FF" stroke-width="0.1"/>
</g>
<defs>
<clipPath id="clip0_168_1081">
<rect width="28" height="28" fill="white"/>
</clipPath>
</defs>
</svg>
